<svg width="52" height="52" viewBox="0 0 52 52" fill="none" xmlns="http://www.w3.org/2000/svg">
<path fill-rule="evenodd" clip-rule="evenodd" d="M47.6 29.2H39.6C38.3 29.2 37.2 28.1 37.2 26.8V25.2C37.2 23.9 38.3 22.8 39.6 22.8H47.6C48.9 22.8 50 23.9 50 25.2V26.8C50 28.1 48.9 29.2 47.6 29.2Z" fill="white"/>
<path fill-rule="evenodd" clip-rule="evenodd" d="M30 29.2H22C20.7 29.2 19.6 28.1 19.6 26.8V25.2C19.6 23.9 20.7 22.8 22 22.8H30C31.3 22.8 32.4 23.9 32.4 25.2V26.8C32.4 28.1 31.3 29.2 30 29.2Z" fill="white"/>
<path fill-rule="evenodd" clip-rule="evenodd" d="M12.4 29.2H4.4C3 29.2 2 28.1 2 26.8V25.2C2 23.9 3.1 22.8 4.4 22.8H12.4C13.7 22.8 14.8 23.9 14.8 25.2V26.8C14.8 28.1 13.7 29.2 12.4 29.2Z" fill="white"/>
<path fill-rule="evenodd" clip-rule="evenodd" d="M43.6 34H8.4C6.6 34 5.2 35.4 5.2 37.2V45.2C5.2 47 6.6 48.4 8.4 48.4H43.6C45.4 48.4 46.8 47 46.8 45.2V37.2C46.8 35.4 45.3 34 43.6 34ZM42 42.8C42 43.2 41.6 43.6 41.2 43.6H10.8C10.4 43.6 10 43.2 10 42.8V39.6C10 39.2 10.4 38.8 10.8 38.8H41.2C41.6 38.8 42 39.2 42 39.6V42.8Z" fill="white"/>
<path fill-rule="evenodd" clip-rule="evenodd" d="M43.6 3.60001H8.4C6.6 3.60001 5.2 5.00001 5.2 6.80001V14.8C5.2 16.6 6.6 18 8.4 18H43.6C45.4 18 46.8 16.6 46.8 14.8V6.80001C46.8 5.00001 45.3 3.60001 43.6 3.60001ZM42 12.4C42 12.8 41.6 13.2 41.2 13.2H10.8C10.4 13.2 10 12.8 10 12.4V9.20001C10 8.80001 10.4 8.40001 10.8 8.40001H41.2C41.6 8.40001 42 8.80001 42 9.20001V12.4Z" fill="white"/>
</svg>
